<svg id="e7om5XlR31A1" xmlns="http://www.w3.org/2000/svg" xmlns:xlink="http://www.w3.org/1999/xlink" viewBox="0 0 200 200" shape-rendering="geometricPrecision" text-rendering="geometricPrecision"><path d="M36.7,-74c4.4,13-2.9,35.8,5.6,49.8c8.6,14,32.9,19.1,40.7,28.7s-1,23.7-11.1,35C61.8,50.7,50.4,59.2,38.3,60.3C26.1,61.4,13,55.1,0.9,53.6c-12.1-1.6-23.3,1.5-31.6-1.8-8.3-3.4-13.6-13.3-18.1-23-4.6-9.7-8.2-19.2-3.9-26.3c4.4-7,16.8-11.5,20.3-23c3.6-11.4-1.8-29.7,2.1-42.9c3.9-13.3,17.1-21.4,31.8-24c14.6-2.5,30.8.5,35.2,13.4Z" transform="translate(89.088575 113.88665)" fill="#ffd6e8"/><path d="M36.7,-74c4.4,13-2.9,35.8,5.6,49.8c8.6,14,32.9,19.1,40.7,28.7s-1,23.7-11.1,35C61.8,50.7,50.4,59.2,38.3,60.3C26.1,61.4,13,55.1,0.9,53.6c-12.1-1.6-23.3,1.5-31.6-1.8-8.3-3.4-13.6-13.3-18.1-23-4.6-9.7-8.2-19.2-3.9-26.3c4.4-7,16.8-11.5,20.3-23c3.6-11.4-1.8-29.7,2.1-42.9c3.9-13.3,17.1-21.4,31.8-24c14.6-2.5,30.8.5,35.2,13.4Z" transform="matrix(.097509 0.09284-.06512 0.068395 23.982613 43.964542)" fill="#ffd6e8"/><path d="M36.7,-74c4.4,13-2.9,35.8,5.6,49.8c8.6,14,32.9,19.1,40.7,28.7s-1,23.7-11.1,35C61.8,50.7,50.4,59.2,38.3,60.3C26.1,61.4,13,55.1,0.9,53.6c-12.1-1.6-23.3,1.5-31.6-1.8-8.3-3.4-13.6-13.3-18.1-23-4.6-9.7-8.2-19.2-3.9-26.3c4.4-7,16.8-11.5,20.3-23c3.6-11.4-1.8-29.7,2.1-42.9c3.9-13.3,17.1-21.4,31.8-24c14.6-2.5,30.8.5,35.2,13.4Z" transform="matrix(.215638 0.205313 0.083753-.087965 29.666313 177.077822)" fill="#ffd6e8"/><path d="M36.7,-74c4.4,13-2.9,35.8,5.6,49.8c8.6,14,32.9,19.1,40.7,28.7s-1,23.7-11.1,35C61.8,50.7,50.4,59.2,38.3,60.3C26.1,61.4,13,55.1,0.9,53.6c-12.1-1.6-23.3,1.5-31.6-1.8-8.3-3.4-13.6-13.3-18.1-23-4.6-9.7-8.2-19.2-3.9-26.3c4.4-7,16.8-11.5,20.3-23c3.6-11.4-1.8-29.7,2.1-42.9c3.9-13.3,17.1-21.4,31.8-24c14.6-2.5,30.8.5,35.2,13.4Z" transform="matrix(-.090358-.144362-.102955 0.064441 167.955368 63.997818)" fill="#ffd6e8"/></svg>
