<svg id="ewfydOPIu5r1" xmlns="http://www.w3.org/2000/svg" xmlns:xlink="http://www.w3.org/1999/xlink" viewBox="0 0 200 200" shape-rendering="geometricPrecision" text-rendering="geometricPrecision"><path d="M29.2,-33.9c7.6,5.5,11.9,15.7,15.2,27.1c3.2,11.4,5.3,24-.2,31.2-5.5,7.1-18.5,8.8-32.7,19.2-14.2,10.3-29.6,29.3-46.1,31.8s-34.2-11.5-37.2-28.3c-3.1-16.9,8.5-36.6,19-49.5c10.5-13,20-19.2,28.6-24.6c8.6-5.3,16.4-9.7,25.7-11.5s20.1-1,27.7,4.6Z" transform="translate(100 100)" fill="#ffa500"/><path d="M29.2,-33.9c7.6,5.5,11.9,15.7,15.2,27.1c3.2,11.4,5.3,24-.2,31.2-5.5,7.1-18.5,8.8-32.7,19.2-14.2,10.3-29.6,29.3-46.1,31.8s-34.2-11.5-37.2-28.3c-3.1-16.9,8.5-36.6,19-49.5c10.5-13,20-19.2,28.6-24.6c8.6-5.3,16.4-9.7,25.7-11.5s20.1-1,27.7,4.6Z" transform="matrix(-.195282 0 0 0.202019 157.766366 160.399409)" fill="#ffa500"/><path d="M29.2,-33.9c7.6,5.5,11.9,15.7,15.2,27.1c3.2,11.4,5.3,24-.2,31.2-5.5,7.1-18.5,8.8-32.7,19.2-14.2,10.3-29.6,29.3-46.1,31.8s-34.2-11.5-37.2-28.3c-3.1-16.9,8.5-36.6,19-49.5c10.5-13,20-19.2,28.6-24.6c8.6-5.3,16.4-9.7,25.7-11.5s20.1-1,27.7,4.6Z" transform="matrix(-.055625 0.036054 0.061338 0.094634 52.503209 62.196588)" fill="#ffa500"/></svg>
