<svg id="eV9RgB3zfmb1" xmlns="http://www.w3.org/2000/svg" xmlns:xlink="http://www.w3.org/1999/xlink" viewBox="0 0 200 200" shape-rendering="geometricPrecision" text-rendering="geometricPrecision"><path d="M44.7,-28.2c11,21.5,16.2,43.9,7.8,53.7-8.4,9.7-30.5,6.8-53.6,7.4-23.2.7-47.5,4.9-54.7-4.2-7.3-9.1,2.4-31.5,14.5-53.7c12.2-22.1,26.7-44,42.4-44.7c15.7-.6,32.6,19.9,43.6,41.5Z" transform="translate(100 109.627727)" fill="#f1c21b"/><path d="M44.7,-28.2c11,21.5,16.2,43.9,7.8,53.7-8.4,9.7-30.5,6.8-53.6,7.4-23.2.7-47.5,4.9-54.7-4.2-7.3-9.1,2.4-31.5,14.5-53.7c12.2-22.1,26.7-44,42.4-44.7c15.7-.6,32.6,19.9,43.6,41.5Z" transform="matrix(-.077103 0.316393-.131287-.031994 27.482791 66.939927)" fill="#f1c21b"/><path d="M44.7,-28.2c11,21.5,16.2,43.9,7.8,53.7-8.4,9.7-30.5,6.8-53.6,7.4-23.2.7-47.5,4.9-54.7-4.2-7.3-9.1,2.4-31.5,14.5-53.7c12.2-22.1,26.7-44,42.4-44.7c15.7-.6,32.6,19.9,43.6,41.5Z" transform="matrix(.118738 0.099742-.169009 0.201197 176.996519 79.416371)" fill="#f1c21b"/><path d="M90.1438,168.91389c-3.60616,4.68747-7.93755,8.7577-10.81176,9.15137-2.85274.37852-4.25746-2.93253-6.50522-5.8431-2.2784-2.90841-5.40902-5.42935-4.11606-7.74393c1.28378-2.32757,6.98195-4.46177,12.85734-6.25382c5.8631-1.7639,11.89424-3.19864,13.48467-1.26474c1.56896,1.94905-1.28134,7.2516-4.90897,11.95422Z" transform="matrix(.303297-.216049 0.295769 0.415209-7.767407 112.852502)" fill="#f1c21b"/><path d="M90.1438,168.91389c-3.60616,4.68747-7.93755,8.7577-10.81176,9.15137-2.85274.37852-4.25746-2.93253-6.50522-5.8431-2.2784-2.90841-5.40902-5.42935-4.11606-7.74393c1.28378-2.32757,6.98195-4.46177,12.85734-6.25382c5.8631-1.7639,11.89424-3.19864,13.48467-1.26474c1.56896,1.94905-1.28134,7.2516-4.90897,11.95422Z" transform="matrix(.305861-.212404 0.290778 0.41872 26.356775 121.078325)" fill="#f1c21b"/><path d="M90.1438,168.91389c-3.60616,4.68747-7.93755,8.7577-10.81176,9.15137-2.85274.37852-4.25746-2.93253-6.50522-5.8431-2.2784-2.90841-5.40902-5.42935-4.11606-7.74393c1.28378-2.32757,6.98195-4.46177,12.85734-6.25382c5.8631-1.7639,11.89424-3.19864,13.48467-1.26474c1.56896,1.94905-1.28134,7.2516-4.90897,11.95422Z" transform="matrix(.305861-.212404 0.290778 0.41872 64.867687 106.154474)" fill="#f1c21b"/></svg>
