<svg id="esDSp47XWxG1" xmlns="http://www.w3.org/2000/svg" xmlns:xlink="http://www.w3.org/1999/xlink" viewBox="0 0 200 200" shape-rendering="geometricPrecision" text-rendering="geometricPrecision"><path d="M51.2,-51.2c16.3,3.7,31.2,18.9,36,37.2C92,4.2,86.8,25.7,75.3,41.4C63.7,57.2,46,67.3,29.2,68.3s-32.6-7.2-50.9-12.3c-18.2-5.1-38.9-7.1-43-17.2s8.4-28.3,17-42c8.6-13.8,13.3-23,20.6-28.4c7.3-5.3,17.2-6.8,30.9-11.3s31.2-12.1,47.4-8.3Z" transform="translate(100 100)" fill="#f2f4f8"/><path d="M51.2,-51.2c16.3,3.7,31.2,18.9,36,37.2C92,4.2,86.8,25.7,75.3,41.4C63.7,57.2,46,67.3,29.2,68.3s-32.6-7.2-50.9-12.3c-18.2-5.1-38.9-7.1-43-17.2s8.4-28.3,17-42c8.6-13.8,13.3-23,20.6-28.4c7.3-5.3,17.2-6.8,30.9-11.3s31.2-12.1,47.4-8.3Z" transform="matrix(.501232 0.062715-.026938 0.215296 50.756078 173.078574)" fill="#f2f4f8"/><path d="M51.2,-51.2c16.3,3.7,31.2,18.9,36,37.2C92,4.2,86.8,25.7,75.3,41.4C63.7,57.2,46,67.3,29.2,68.3s-32.6-7.2-50.9-12.3c-18.2-5.1-38.9-7.1-43-17.2s8.4-28.3,17-42c8.6-13.8,13.3-23,20.6-28.4c7.3-5.3,17.2-6.8,30.9-11.3s31.2-12.1,47.4-8.3Z" transform="matrix(.090167 0 0 0.133267 9.700836 138.510913)" fill="#f2f4f8"/><path d="M51.2,-51.2c16.3,3.7,31.2,18.9,36,37.2C92,4.2,86.8,25.7,75.3,41.4C63.7,57.2,46,67.3,29.2,68.3s-32.6-7.2-50.9-12.3c-18.2-5.1-38.9-7.1-43-17.2s8.4-28.3,17-42c8.6-13.8,13.3-23,20.6-28.4c7.3-5.3,17.2-6.8,30.9-11.3s31.2-12.1,47.4-8.3Z" transform="matrix(.078259 0 0 0.102515 15.882799 78.68081)" fill="#f2f4f8"/><path d="M51.2,-51.2c16.3,3.7,31.2,18.9,36,37.2C92,4.2,86.8,25.7,75.3,41.4C63.7,57.2,46,67.3,29.2,68.3s-32.6-7.2-50.9-12.3c-18.2-5.1-38.9-7.1-43-17.2s8.4-28.3,17-42c8.6-13.8,13.3-23,20.6-28.4c7.3-5.3,17.2-6.8,30.9-11.3s31.2-12.1,47.4-8.3Z" transform="matrix(.089803 0.008096-.011966 0.132729 47.82764 69.711898)" fill="#f2f4f8"/><path d="M51.2,-51.2c16.3,3.7,31.2,18.9,36,37.2C92,4.2,86.8,25.7,75.3,41.4C63.7,57.2,46,67.3,29.2,68.3s-32.6-7.2-50.9-12.3c-18.2-5.1-38.9-7.1-43-17.2s8.4-28.3,17-42c8.6-13.8,13.3-23,20.6-28.4c7.3-5.3,17.2-6.8,30.9-11.3s31.2-12.1,47.4-8.3Z" transform="matrix(.121147 0.010922-.00899 0.09972 27.912675 113.999359)" fill="#f2f4f8"/></svg>
