<svg id="eKLrStBM2wh1" xmlns="http://www.w3.org/2000/svg" xmlns:xlink="http://www.w3.org/1999/xlink" viewBox="0 0 200 200" shape-rendering="geometricPrecision" text-rendering="geometricPrecision"><path d="M39.1,-36.8C50.2,-28,58.5,-14,63,4.5c4.6,18.6,5.4,41.6-5.7,54.3C46.1,71.4,23.1,73.7,2.8,70.9s-37.8-10.6-43.3-23.3c-5.5-12.6,1-30.1.1-48.6-1-18.4-9.4-37.8-3.9-46.6c5.5-8.9,24.9-7.1,41.6-4.4s30.7,6.4,41.8,15.2Z" transform="translate(100 100)" fill="#33ffce"/><path d="M39.1,-36.8C50.2,-28,58.5,-14,63,4.5c4.6,18.6,5.4,41.6-5.7,54.3C46.1,71.4,23.1,73.7,2.8,70.9s-37.8-10.6-43.3-23.3c-5.5-12.6,1-30.1.1-48.6-1-18.4-9.4-37.8-3.9-46.6c5.5-8.9,24.9-7.1,41.6-4.4s30.7,6.4,41.8,15.2Z" transform="matrix(.186033 0.108481-.081431 0.139647 30.870794 88.367658)" fill="#33ffce"/></svg>
