<?xml version="1.0" standalone="no"?>
<svg viewBox="0 0 200 200" xmlns="http://www.w3.org/2000/svg">
  <path fill="#24A148" d="M25.2,-42.5C35.2,-38,47.4,-36.2,58.2,-29.6C68.9,-23,78.1,-11.5,76.6,-0.8C75.2,9.8,63,19.6,50.9,23.8C38.8,28.1,26.8,26.8,18.3,35.7C9.8,44.6,4.9,63.6,-2.3,67.6C-9.5,71.6,-19,60.5,-32.5,54.5C-45.9,48.5,-63.4,47.6,-72.2,39.3C-81,31.1,-81.3,15.5,-76.5,2.8C-71.8,-10,-62,-20.1,-55.4,-32.2C-48.8,-44.4,-45.5,-58.7,-36.8,-64C-28.1,-69.3,-14,-65.6,-3.2,-60C7.6,-54.5,15.3,-47.1,25.2,-42.5Z" transform="translate(100 100)" />
</svg>
