<svg id="eREluYTOsx81" xmlns="http://www.w3.org/2000/svg" xmlns:xlink="http://www.w3.org/1999/xlink" viewBox="0 0 200 200" shape-rendering="geometricPrecision" text-rendering="geometricPrecision"><path d="M27.6,-47.4c9.4,5.1,19.1,10,21.7,17.8c2.6,7.9-1.9,18.7-.4,30.4c1.4,11.8,8.9,24.3,5.5,30.7-3.5,6.5-17.8,6.8-28.7,12.3C14.8,49.4,7.4,60.3,-1.7,63.2c-9,2.8-19.8-2.3-31-7.7-11.2-5.3-22.9-11-32.9-20.3-9.9-9.3-18.1-22.3-12.9-32.2s23.8-16.9,30.8-31.3s2.4-36.2,8.4-43.3c6.1-7.1,22.7.5,35.5,7.1c12.9,6.5,21.9,11.9,31.4,17.1Z" transform="translate(100 100)" fill="#08bdba"/><path d="M27.6,-47.4c9.4,5.1,19.1,10,21.7,17.8c2.6,7.9-1.9,18.7-.4,30.4c1.4,11.8,8.9,24.3,5.5,30.7-3.5,6.5-17.8,6.8-28.7,12.3C14.8,49.4,7.4,60.3,-1.7,63.2c-9,2.8-19.8-2.3-31-7.7-11.2-5.3-22.9-11-32.9-20.3-9.9-9.3-18.1-22.3-12.9-32.2s23.8-16.9,30.8-31.3s2.4-36.2,8.4-43.3c6.1-7.1,22.7.5,35.5,7.1c12.9,6.5,21.9,11.9,31.4,17.1Z" transform="matrix(.035467-.039025 0.070272 0.063864 175.565997 45.554036)" fill="#08bdba"/><path d="M27.6,-47.4c9.4,5.1,19.1,10,21.7,17.8c2.6,7.9-1.9,18.7-.4,30.4c1.4,11.8,8.9,24.3,5.5,30.7-3.5,6.5-17.8,6.8-28.7,12.3C14.8,49.4,7.4,60.3,-1.7,63.2c-9,2.8-19.8-2.3-31-7.7-11.2-5.3-22.9-11-32.9-20.3-9.9-9.3-18.1-22.3-12.9-32.2s23.8-16.9,30.8-31.3s2.4-36.2,8.4-43.3c6.1-7.1,22.7.5,35.5,7.1c12.9,6.5,21.9,11.9,31.4,17.1Z" transform="matrix(.045202-.049737 0.044837 0.040748 166.540681 152.588295)" fill="#08bdba"/><path d="M27.6,-47.4c9.4,5.1,19.1,10,21.7,17.8c2.6,7.9-1.9,18.7-.4,30.4c1.4,11.8,8.9,24.3,5.5,30.7-3.5,6.5-17.8,6.8-28.7,12.3C14.8,49.4,7.4,60.3,-1.7,63.2c-9,2.8-19.8-2.3-31-7.7-11.2-5.3-22.9-11-32.9-20.3-9.9-9.3-18.1-22.3-12.9-32.2s23.8-16.9,30.8-31.3s2.4-36.2,8.4-43.3c6.1-7.1,22.7.5,35.5,7.1c12.9,6.5,21.9,11.9,31.4,17.1Z" transform="matrix(.308161 0 0 0.343111 124.390244 100)" fill="#08bdba"/></svg>
