<svg id="eMVoGnfuUBv1" xmlns="http://www.w3.org/2000/svg" xmlns:xlink="http://www.w3.org/1999/xlink" viewBox="0 0 200 200" shape-rendering="geometricPrecision" text-rendering="geometricPrecision"><path d="M36.5,-38.4c13.7-2,29.5,4.9,34.2,16.2c4.6,11.2-1.9,26.8-7.2,42.8-5.3,15.9-9.3,32.1-19.7,39.6s-27.1,6.2-37.8-2C-4.8,50,-9.6,34.9,-19.1,27.1c-9.5-7.7-23.7-8.1-34.6-15.7-10.8-7.6-18.2-22.4-14-32.8c4.2-10.5,19.9-16.6,33.1-14.7c13.2,1.8,23.9,11.6,35,11.1c11-.5,22.5-11.4,36.1-13.4Z" transform="translate(98.328785 97.533812)" fill="#8a3ffc"/><path d="M36.5,-38.4c13.7-2,29.5,4.9,34.2,16.2c4.6,11.2-1.9,26.8-7.2,42.8-5.3,15.9-9.3,32.1-19.7,39.6s-27.1,6.2-37.8-2C-4.8,50,-9.6,34.9,-19.1,27.1c-9.5-7.7-23.7-8.1-34.6-15.7-10.8-7.6-18.2-22.4-14-32.8c4.2-10.5,19.9-16.6,33.1-14.7c13.2,1.8,23.9,11.6,35,11.1c11-.5,22.5-11.4,36.1-13.4Z" transform="matrix(0 0.095289-.147871 0 182.748957 146.658063)" fill="#8a3ffc"/><path d="M36.5,-38.4c13.7-2,29.5,4.9,34.2,16.2c4.6,11.2-1.9,26.8-7.2,42.8-5.3,15.9-9.3,32.1-19.7,39.6s-27.1,6.2-37.8-2C-4.8,50,-9.6,34.9,-19.1,27.1c-9.5-7.7-23.7-8.1-34.6-15.7-10.8-7.6-18.2-22.4-14-32.8c4.2-10.5,19.9-16.6,33.1-14.7c13.2,1.8,23.9,11.6,35,11.1c11-.5,22.5-11.4,36.1-13.4Z" transform="matrix(-.157896 0.191453-.257717-.212546 28.193949 167.067449)" fill="#8a3ffc"/></svg>
